<?xml version="1.0" encoding="UTF-8"?>
<svg version="1.1" xmlns="http://www.w3.org/2000/svg" width="1024" height="1024">
<path d="M0 0 C337.92 0 675.84 0 1024 0 C1024 337.92 1024 675.84 1024 1024 C686.08 1024 348.16 1024 0 1024 C0 686.08 0 348.16 0 0 Z " fill="#14172A" transform="translate(0,0)"/>
<path d="M0 0 C0.78584473 0.20286621 1.57168945 0.40573242 2.38134766 0.61474609 C30.83858666 8.17261498 55.61822495 24.10013015 77 44 C77.67804688 44.62390625 78.35609375 45.2478125 79.0546875 45.890625 C110.81716594 76.24994174 126.19333754 121.69454393 127.26266479 164.69631958 C127.4269006 172.25008268 127.55627131 179.80310784 127.62207031 187.35839844 C127.63991829 188.89860405 127.63991829 188.89860405 127.65812683 190.46992493 C127.67962818 192.40489832 127.6932927 194.33998184 127.69746399 196.27507019 C127.80006855 205.05438839 129.68285605 212.83487798 132.8125 221 C133.20671143 222.0370105 133.20671143 222.0370105 133.60888672 223.0949707 C136.49302635 230.5124487 139.94961839 236.82731137 145 243 C145 243.66 145 244.32 145 245 C145.66 245 146.32 245 147 245 C147.66 245.845625 148.32 246.69125 149 247.5625 C160.80532731 262.13951285 182.23870666 268.13269266 200 271 C203.15596861 271.2505124 206.28884268 271.27457287 209.45361328 271.25878906 C210.3395517 271.2622937 211.22549011 271.26579834 212.13827515 271.26940918 C215.0323701 271.27812728 217.92621558 271.27241374 220.8203125 271.265625 C222.84951829 271.26697426 224.87872377 271.26891697 226.90792847 271.27142334 C231.14584452 271.27436096 235.38367587 271.27012004 239.62158203 271.26074219 C245.0395028 271.24933389 250.45722567 271.25592455 255.87513924 271.26788712 C260.05998208 271.27513011 264.24477836 271.27280683 268.42962265 271.26763153 C270.4270111 271.26630254 272.42440384 271.2679163 274.42178726 271.27259064 C277.21636339 271.27769769 280.01062309 271.2698878 282.80517578 271.25878906 C284.02886871 271.26486176 284.02886871 271.26486176 285.27728271 271.27105713 C293.84026852 271.20839267 302.96910258 269.508703 309.54296875 263.6171875 C313.371855 259.32793663 314.79051701 255.26241626 315.3125 249.625 C314.80600682 243.74967911 313.49448066 239.02763298 309.125 234.875 C291.06366595 221.1262702 263.93290213 216.59863182 242.60546875 210.265625 C234.87017414 207.96732018 227.14976487 205.62423236 219.4375 203.25 C218.27943848 202.89744141 217.12137695 202.54488281 215.92822266 202.18164062 C208.14776791 199.77794123 200.55973968 197.02542322 193 194 C192.26402588 193.70593262 191.52805176 193.41186523 190.76977539 193.10888672 C174.08419896 186.30987222 156.87903241 177.87903241 144 165 C143.63696289 163.05493164 143.63696289 163.05493164 143.47265625 160.66015625 C143.40481934 159.77231445 143.33698242 158.88447266 143.26708984 157.96972656 C143.1995752 157.0103418 143.13206055 156.05095703 143.0625 155.0625 C140.2536627 121.41099299 131.54113487 82.58176269 108.109375 56.7421875 C106 54 106 54 105.921875 51.99609375 C119.56722087 26.73242803 146.76089583 9.35355967 173.484375 1.0234375 C174.64453125 0.68570312 175.8046875 0.34796875 177 0 C178.01578125 -0.29648437 179.0315625 -0.59296875 180.078125 -0.8984375 C194.64050065 -4.83105766 208.9990786 -5.28812711 223.97045898 -5.22705078 C225.93323765 -5.22648536 227.89601674 -5.22680577 229.85879517 -5.22793579 C235.14083419 -5.2285052 240.42278076 -5.21681816 245.70479846 -5.20278788 C251.24208264 -5.19021128 256.77936939 -5.18910459 262.31666565 -5.18673706 C272.78160469 -5.18054253 283.24650151 -5.16415937 293.71142203 -5.14403808 C305.63414896 -5.12161569 317.55687801 -5.11066976 329.47962081 -5.10064721 C353.9864372 -5.07979118 378.49321623 -5.04465496 403 -5 C403.01801936 -3.08637923 403.03085034 -1.17270916 403.04150391 0.7409668 C403.05306015 2.33946724 403.05306015 2.33946724 403.06484985 3.97026062 C402.61493711 24.98986656 390.45106916 45.23541048 375.94580078 59.52978516 C371.07563337 64.14176135 365.89741691 67.79046126 360 71 C358.78763672 71.68642578 358.78763672 71.68642578 357.55078125 72.38671875 C344.39217935 79.44278064 329.81182977 82.31086268 314.99584961 82.27124023 C313.43745613 82.27908035 313.43745613 82.27908035 311.84757996 82.28707886 C309.6122226 82.29724858 307.37684203 82.30308686 305.14146233 82.30496025 C301.59660367 82.3086518 298.05201784 82.32545286 294.50721741 82.34571838 C284.43577148 82.40087536 274.36428702 82.43182241 264.29272461 82.45629883 C258.11375182 82.47221404 251.93497592 82.50246711 245.75610542 82.54106331 C243.41150572 82.55266987 241.06687078 82.55864328 238.72224236 82.55874443 C235.43953857 82.5589375 232.15737523 82.5772768 228.87475586 82.59936523 C227.91811035 82.59478806 226.96146484 82.59021088 225.97583008 82.585495 C219.53420281 82.65404692 214.06425061 83.86170868 208 86 C206.515 86.495 206.515 86.495 205 87 C202.6699743 90.36559268 202.20832229 93.97243568 202 98 C203.83507971 103.99459373 207.79430411 106.92601341 213 110 C233.37243654 120.5164448 256.38240316 126.32490948 278.32421875 132.67236328 C339.03135711 150.25150322 339.03135711 150.25150322 362 168 C362.94617188 168.72832031 363.89234375 169.45664062 364.8671875 170.20703125 C384.76886928 186.03668871 399.47572185 207.35537908 403 233 C403.36149476 238.79307264 403.4391398 244.57180622 403.4375 250.375 C403.4385675 251.17447052 403.43963501 251.97394104 403.44073486 252.79763794 C403.40605376 270.78113977 400.46392752 285.94696951 392 302 C391.57332031 302.90492188 391.14664063 303.80984375 390.70703125 304.7421875 C385.19317944 315.89924835 376.55086892 325.15563481 367 333 C366.28714844 333.60585938 365.57429687 334.21171875 364.83984375 334.8359375 C355.46661109 342.41920992 345.424791 347.76948543 334.125 351.8125 C333.36018311 352.09029297 332.59536621 352.36808594 331.80737305 352.65429688 C315.27467241 358.27285188 299.07759263 358.44766894 281.80078125 358.3984375 C279.27320777 358.40046388 276.74563486 358.40337998 274.21806335 358.40713501 C268.94065843 358.41153583 263.6633685 358.40549726 258.38598633 358.39111328 C253.01253096 358.37663351 247.63932436 358.37656819 242.26586914 358.39111328 C235.71803085 358.40867241 229.17037254 358.41115093 222.62251854 358.4014473 C220.15301659 358.39947011 217.68350667 358.40181539 215.21401405 358.40888596 C196.11144804 358.45157449 177.31773021 357.53237368 158.9375 351.875 C157.94492187 351.5756958 156.95234375 351.2763916 155.9296875 350.96801758 C134.75944615 344.34893749 116.34498723 333.68326771 99 320 C98.030625 319.2471875 97.06125 318.494375 96.0625 317.71875 C91.18089742 313.84530448 86.75289369 309.96923671 82.828125 305.1171875 C81.19353907 303.2241414 79.49671532 301.54329857 77.6953125 299.8125 C73.78520537 295.93020449 70.69542393 291.68666521 67.625 287.125 C67.06482178 286.29709961 66.50464355 285.46919922 65.92749023 284.61621094 C57.64143785 272.1663668 51.0122025 259.08399591 46 245 C45.55914062 243.79214844 45.11828125 242.58429688 44.6640625 241.33984375 C36.85270849 218.49631072 36.51366654 193.78975755 36.32714844 169.91064453 C36.21538693 157.57720995 35.92458915 145.4971582 31.3125 133.875 C30.92167236 132.8684436 30.92167236 132.8684436 30.52294922 131.84155273 C26.77489719 122.55584825 21.39445678 115.00784554 14.50390625 107.77734375 C13 106 13 106 13 104 C12.443125 103.74734375 11.88625 103.4946875 11.3125 103.234375 C8.64402769 101.80998775 6.39913673 100.09219428 4 98.25 C-4.17291367 92.27956241 -12.64242292 88.24918163 -22.25 85.1875 C-23.223927 84.87679565 -23.223927 84.87679565 -24.2175293 84.55981445 C-42.00742108 79.20048816 -63.56408983 81.46731472 -80 90 C-80.98097656 90.49242187 -81.96195313 90.98484375 -82.97265625 91.4921875 C-101.15199111 101.29729972 -114.64281768 117.85456088 -121.1328125 137.4140625 C-123.63007114 146.99092816 -124.14651629 156.27970308 -124.1418457 166.12890625 C-124.14705734 167.92090202 -124.14705734 167.92090202 -124.15237427 169.74909973 C-124.15970514 172.334824 -124.16506468 174.92055446 -124.16866493 177.50628662 C-124.17462543 181.61116652 -124.19121483 185.71596199 -124.21000671 189.82080078 C-124.2163431 191.23248286 -124.22266874 192.64416499 -124.22898388 194.05584717 C-124.23214969 194.76257317 -124.2353155 195.46929916 -124.23857725 196.1974411 C-124.28045308 205.74049913 -124.31358525 215.28351634 -124.32592773 224.82666016 C-124.33436123 231.28148837 -124.3570438 237.73610503 -124.3952834 244.19082737 C-124.41486567 247.59508686 -124.42750903 250.99903151 -124.42244911 254.40335083 C-124.40545362 281.66109688 -124.40545362 281.66109688 -129 295 C-129.28013443 295.82534241 -129.56026886 296.65068481 -129.84889221 297.5010376 C-139.06983447 322.41981348 -157.31536157 339.8505225 -181.02490234 350.94775391 C-190.01471307 354.94887144 -198.75346593 358.04646828 -208.65869141 358.01416016 C-209.47109283 358.01211578 -210.28349426 358.01007141 -211.12051392 358.00796509 C-211.74074432 358.00533661 -212.36097473 358.00270813 -213 358 C-213.09381884 330.54693834 -213.16416204 303.09390103 -213.20724869 275.64071083 C-213.22779439 262.89111569 -213.25576052 250.14162068 -213.30175781 237.39208984 C-213.34187201 226.26784357 -213.36749073 215.14366988 -213.37635398 204.01935327 C-213.38152746 198.1397803 -213.39351646 192.26041483 -213.42292023 186.38090897 C-213.63428939 142.35651892 -211.22602617 101.79055952 -184 65 C-183.61295898 64.46777832 -183.22591797 63.93555664 -182.82714844 63.38720703 C-155.45079143 25.98434004 -115.30488099 3.34714578 -69.94799805 -4.34814453 C-46.90803678 -7.41346354 -22.39092997 -5.90280012 0 0 Z " fill="#7285F3" transform="translate(417,335)"/>
<path d="M0 0 C0.33 0 0.66 0 1 0 C1.04680113 15.88176098 1.08202851 31.76350322 1.10362434 47.64531612 C1.11391991 55.02015939 1.12794723 62.3949597 1.15087891 69.76977539 C1.17086558 76.20056725 1.18372893 82.631328 1.18817699 89.06215006 C1.19077546 92.46458291 1.19684684 95.86692676 1.21146011 99.26933098 C1.22601306 103.07535925 1.22797632 106.88120417 1.22705078 110.68725586 C1.23424133 111.80503922 1.24143188 112.92282257 1.24884033 114.07447815 C1.23232244 120.36670554 0.60900221 125.91128918 -1 132 C-1.33 132 -1.66 132 -2 132 C-2.02740022 130.14591875 -2.04657422 128.29171531 -2.0625 126.4375 C-2.07410156 125.40496094 -2.08570313 124.37242187 -2.09765625 123.30859375 C-2 120 -2 120 -1.50672913 116.99119568 C-0.76530238 111.95587104 -0.82302569 106.91266095 -0.79467773 101.83227539 C-0.77982834 100.1775119 -0.77982834 100.1775119 -0.76467896 98.48931885 C-0.73320158 94.85878615 -0.70836107 91.2282404 -0.68359375 87.59765625 C-0.66301234 85.0741696 -0.64201556 82.55068631 -0.62062073 80.02720642 C-0.57114818 74.07403877 -0.52585131 68.12084871 -0.48259836 62.16763347 C-0.43309513 55.38643284 -0.37822583 48.60527889 -0.32291877 41.8241235 C-0.20933292 27.88279263 -0.10244359 13.94141688 0 0 Z " fill="#4CC9F6" transform="translate(291,491)"/>
<path d="M0 0 C0.33 0.66 0.66 1.32 1 2 C-1.26726853 7.98348681 -4.28730311 13.62078723 -7.21484375 19.30273438 C-7.55902344 19.98013672 -7.90320313 20.65753906 -8.2578125 21.35546875 C-8.5686377 21.96028076 -8.87946289 22.56509277 -9.19970703 23.18823242 C-10.04851192 25.10982519 -10.52720345 26.95588703 -11 29 C-11.36996094 30.17046875 -11.73992187 31.3409375 -12.12109375 32.546875 C-14.88446953 41.3003605 -16.73220743 49.66600678 -17.640625 58.8046875 C-18 62 -18 62 -19 65 C-19.37750314 67.05835654 -19.72927629 69.12151301 -20.0625 71.1875 C-20.23910156 72.27417969 -20.41570312 73.36085938 -20.59765625 74.48046875 C-20.73042969 75.31191406 -20.86320313 76.14335937 -21 77 C-21.33 77 -21.66 77 -22 77 C-22.70291613 50.12048703 -14.18252131 24.14808781 -1 1 C-0.67 0.67 -0.34 0.34 0 0 Z " fill="#37CDE1" transform="translate(226,411)"/>
<path d="M0 0 C-0.33 0.66 -0.66 1.32 -1 2 C-3.44781413 2.57507072 -5.83547575 3.03550823 -8.3125 3.4375 C-9.78949703 3.69806966 -11.26606034 3.96110934 -12.7421875 4.2265625 C-13.83611816 4.42233887 -13.83611816 4.42233887 -14.95214844 4.62207031 C-30.08022907 7.41394785 -44.45477825 12.78681081 -58 20 C-59.456468 20.71216092 -60.91460382 21.42092953 -62.375 22.125 C-65.78935062 23.82503232 -68.87659512 25.81361659 -72 28 C-72 27.01 -72 26.02 -72 25 C-54.30460451 14.62278004 -36.67450891 6.91457962 -16.625 2.25 C-15.67286621 2.02683105 -14.72073242 1.80366211 -13.73974609 1.57373047 C-9.0789882 0.52693364 -4.81132738 -0.28964513 0 0 Z " fill="#38CFE2" transform="translate(351,331)"/>
<path d="M0 0 C0.66 0.33 1.32 0.66 2 1 C0.97229492 2.01199463 0.97229492 2.01199463 -0.07617188 3.04443359 C-2.66091304 5.59247725 -5.23862101 8.14754297 -7.81445312 10.70458984 C-8.9219751 11.80216594 -10.03129849 12.89792785 -11.14257812 13.99169922 C-17.28741999 20.04226102 -23.14561481 26.08465013 -28.39648438 32.95117188 C-30.41696389 35.53275898 -32.61133991 37.76063117 -35 40 C-33.43580237 35.03081119 -30.50930884 31.52067665 -27.25 27.5625 C-26.68015381 26.86600342 -26.11030762 26.16950684 -25.52319336 25.4519043 C-17.81407915 16.18479942 -9.3552731 7.60556893 0 0 Z " fill="#3DDCEB" transform="translate(265,366)"/>
<path d="M0 0 C19.14 0 38.28 0 58 0 C58 13.5 58 13.5 57 18 C56.34 18 55.68 18 55 18 C54.91642447 13.15261909 55.11039048 8.78165117 56 4 C56 3.01 56 2.02 56 1 C37.52 1 19.04 1 0 1 C0 0.67 0 0.34 0 0 Z " fill="#846BE8" transform="translate(762,330)"/>
<path d="M0 0 C0.33 0 0.66 0 1 0 C3.18502806 8.59270956 3.30723373 16.83519244 3.26074219 25.64086914 C3.25000682 28.06096358 3.26069383 30.48031847 3.2734375 32.90039062 C3.27929451 40.4913669 3.14057165 47.65240285 1 55 C0.67 55 0.34 55 0 55 C-0.02777514 53.66679321 -0.04673341 52.33340287 -0.0625 51 C-0.07410156 50.2575 -0.08570313 49.515 -0.09765625 48.75 C0 46 0 46 0.4921875 42.46484375 C1.23214987 36.84429252 1.18413657 31.22314988 1.1875 25.5625 C1.19974609 24.48162109 1.21199219 23.40074219 1.22460938 22.28710938 C1.23501253 16.56884439 0.92756377 11.42588473 -0.66674805 5.91772461 C-1.0576062 3.6685006 -0.68663443 2.15666315 0 0 Z " fill="#983CE8" transform="translate(817,558)"/>
<path d="M0 0 C0.66 0 1.32 0 2 0 C6 8.68669528 6 8.68669528 6 13.375 C4.85033541 16.39286955 3.31871282 17.80283261 1 20 C1.14308594 18.71416016 1.14308594 18.71416016 1.2890625 17.40234375 C1.90312011 11.06898209 2.35766688 5.96351034 0 0 Z " fill="#8943DB" transform="translate(730,574)"/>
<path d="M0 0 C0.99 0.33 1.98 0.66 3 1 C1.6875 1.72916667 0.375 2.45833333 -0.9375 3.1875 C-1.75347656 3.64125 -2.56945312 4.095 -3.41015625 4.5625 C-5.10399083 5.50266761 -6.79924955 6.44027518 -8.49609375 7.375 C-9.28113281 7.808125 -10.06617188 8.24125 -10.875 8.6875 C-11.59429687 9.08324219 -12.31359375 9.47898437 -13.0546875 9.88671875 C-14.74530643 10.85424163 -16.37925383 11.91950255 -18 13 C-18 12.01 -18 11.02 -18 10 C-15.37532366 8.5202565 -12.75027507 7.04118057 -10.125 5.5625 C-9.37863281 5.14162109 -8.63226563 4.72074219 -7.86328125 4.28710938 C-6.79013672 3.68286133 -6.79013672 3.68286133 -5.6953125 3.06640625 C-5.03547363 2.69459229 -4.37563477 2.32277832 -3.69580078 1.93969727 C-2.47885349 1.26534798 -1.24441397 0.62220698 0 0 Z " fill="#39D5E7" transform="translate(297,346)"/>
<path d="M0 0 C0 3 0 3 -1.7578125 5.015625 C-2.53898438 5.75296875 -3.32015625 6.4903125 -4.125 7.25 C-8.01000037 10.99997666 -11.55352473 14.84655545 -15 19 C-15 14.97920983 -13.58029419 14.09368237 -10.875 11.1875 C-10.05902344 10.30707031 -9.24304688 9.42664063 -8.40234375 8.51953125 C-5.64631882 5.62906608 -2.86042819 2.78708387 0 0 Z " fill="#5B99E4" transform="translate(545,361)"/>
<path d="M0 0 C0.66 0.33 1.32 0.66 2 1 C2.20190089 7.35987804 1.6277833 12.85221129 0 19 C-0.33 19 -0.66 19 -1 19 C-1.09507063 12.56688704 -1.15316726 6.34241995 0 0 Z " fill="#4B99DB" transform="translate(290,604)"/>
<path d="M0 0 C0.66 0 1.32 0 2 0 C0.3718356 3.75730247 -2.01401917 6.616823 -4.625 9.75 C-5.85089844 11.22726562 -5.85089844 11.22726562 -7.1015625 12.734375 C-7.72804687 13.48203125 -8.35453125 14.2296875 -9 15 C-9 10.95384619 -6.98772118 8.88911087 -4.625 5.8125 C-4.2125 5.25369141 -3.8 4.69488281 -3.375 4.11914062 C-2.30360789 2.70386621 -1.15657675 1.34655596 0 0 Z " fill="#39D3E2" transform="translate(240,391)"/>
<path d="M0 0 C0.33 0 0.66 0 1 0 C1.18451025 12.66970387 1.18451025 12.66970387 0 18 C-0.66 18 -1.32 18 -2 18 C-2.23268915 11.71739294 -1.40454548 6.11980533 0 0 Z " fill="#7D54D5" transform="translate(819,330)"/>
<path d="M0 0 C-0.33 0.66 -0.66 1.32 -1 2 C-3.51171875 2.6328125 -3.51171875 2.6328125 -6.6875 3.125 C-7.72261719 3.29257812 -8.75773438 3.46015625 -9.82421875 3.6328125 C-12.91601663 3.99028975 -15.89093277 4.06525778 -19 4 C-13.08598549 0.81553065 -6.6951108 -0.34333902 0 0 Z " fill="#6498EC" transform="translate(609,333)"/>
<path d="M0 0 C0.33 0.66 0.66 1.32 1 2 C-0.85439259 6.9775801 -3.29848281 11.43536751 -6 16 C-7 13 -7 13 -5.56640625 9.86328125 C-4.90864027 8.6739872 -4.24022185 7.49053629 -3.5625 6.3125 C-3.22412109 5.70599609 -2.88574219 5.09949219 -2.53710938 4.47460938 C-1.70042085 2.9779975 -0.85137169 1.48830811 0 0 Z " fill="#36D6E6" transform="translate(226,411)"/>
<path d="M0 0 C0.33 0 0.66 0 1 0 C2.51233701 6.46794133 3.21432579 12.35590042 3 19 C2.67 19 2.34 19 2 19 C1.33333333 15.66666667 0.66666667 12.33333333 0 9 C-0.1959375 8.113125 -0.391875 7.22625 -0.59375 6.3125 C-1.02664965 3.84830201 -0.78377646 2.35132939 0 0 Z " fill="#893BD7" transform="translate(817,558)"/>
<path d="M0 0 C0.99 0 1.98 0 3 0 C1.44499019 3.81684226 -1.03595495 6.19195732 -4 9 C-3.3543999 5.51375944 -2.07639763 2.87501211 0 0 Z " fill="#9636E6" transform="translate(796,651)"/>
<path d="M0 0 C0.66 0 1.32 0 2 0 C3.5078125 1.75 3.5078125 1.75 5.125 4 C5.66382813 4.7425 6.20265625 5.485 6.7578125 6.25 C7.16773438 6.8275 7.57765625 7.405 8 8 C7.34 8.66 6.68 9.32 6 10 C4.99723227 8.52270825 3.99785546 7.04311423 3 5.5625 C2.443125 4.73878906 1.88625 3.91507812 1.3125 3.06640625 C0 1 0 1 0 0 Z " fill="#5A98E7" transform="translate(526,391)"/>
<path d="M0 0 C0.66 0.33 1.32 0.66 2 1 C-0.97 3.64 -3.94 6.28 -7 9 C-7.66 8.34 -8.32 7.68 -9 7 C-6.03 4.69 -3.06 2.38 0 0 Z " fill="#3ED6E6" transform="translate(276,358)"/>
<path d="M0 0 C0.66 0.66 1.32 1.32 2 2 C-2.455 4.97 -2.455 4.97 -7 8 C-7.66 7.67 -8.32 7.34 -9 7 C-3.25 3 -3.25 3 -1 3 C-0.67 2.01 -0.34 1.02 0 0 Z " fill="#9A3AE6" transform="translate(777,670)"/>
<path d="M0 0 C0.66 0.33 1.32 0.66 2 1 C0.90081184 1.98475214 -0.2045602 2.96260473 -1.3125 3.9375 C-1.92738281 4.48277344 -2.54226563 5.02804687 -3.17578125 5.58984375 C-5 7 -5 7 -8 8 C-8 7.34 -8 6.68 -8 6 C-7.34 6 -6.68 6 -6 6 C-6 5.34 -6 4.68 -6 4 C-4.03852126 2.61061923 -2.03833424 1.2739589 0 0 Z " fill="#9838E4" transform="translate(789,661)"/>
<path d="M0 0 C2.9375 0.8125 2.9375 0.8125 6 2 C6.33 2.99 6.66 3.98 7 5 C7.66 5 8.32 5 9 5 C9.33 5.99 9.66 6.98 10 8 C6.05205855 6.32971708 3.18203882 3.8204435 0 1 C0 0.67 0 0.34 0 0 Z " fill="#53A9E3" transform="translate(420,431)"/>
<path d="M0 0 C0.66 0 1.32 0 2 0 C0.44499019 3.81684226 -2.03595495 6.19195732 -5 9 C-5.66 8.67 -6.32 8.34 -7 8 C-5.88200014 6.66079162 -4.75538103 5.32877444 -3.625 4 C-2.68527344 2.88625 -2.68527344 2.88625 -1.7265625 1.75 C-1.15679688 1.1725 -0.58703125 0.595 0 0 Z " fill="#1A1139" transform="translate(796,655)"/>
<path d="M0 0 C2.97 0 5.94 0 9 0 C8.67 0.66 8.34 1.32 8 2 C5.35139573 2.59355614 2.70802678 2.74209269 0 3 C0 2.01 0 1.02 0 0 Z " fill="#2CC6DD" transform="translate(354,330)"/>
</svg>
